<svg width="10" height="10" viewBox="0 0 10 10" fill="none" xmlns="http://www.w3.org/2000/svg">
<path d="M8.99992 5.66659H5.66659V8.99992C5.66659 9.36659 5.36659 9.66659 4.99992 9.66659C4.63325 9.66659 4.33325 9.36659 4.33325 8.99992V5.66659H0.999919C0.633252 5.66659 0.333252 5.36659 0.333252 4.99992C0.333252 4.63325 0.633252 4.33325 0.999919 4.33325H4.33325V0.999919C4.33325 0.633252 4.63325 0.333252 4.99992 0.333252C5.36659 0.333252 5.66659 0.633252 5.66659 0.999919V4.33325H8.99992C9.36659 4.33325 9.66659 4.63325 9.66659 4.99992C9.66659 5.36659 9.36659 5.66659 8.99992 5.66659Z" fill="white"/>
</svg>
